<?xml version="1.0" standalone="no"?>
<!DOCTYPE svg PUBLIC "-//W3C//DTD SVG 20010904//EN"
 "http://www.w3.org/TR/2001/REC-SVG-20010904/DTD/svg10.dtd">
<svg version="1.0" xmlns="http://www.w3.org/2000/svg"
 width="262.000000pt" height="262.000000pt" viewBox="0 0 262.000000 262.000000"
 preserveAspectRatio="xMidYMid meet">
<metadata>
Created by potrace 1.11, written by Peter Selinger 2001-2013
</metadata>
<g transform="translate(0.000000,262.000000) scale(0.100000,-0.100000)"
fill="#000000" stroke="none">
<path d="M454 2156 c-77 -28 -123 -64 -168 -129 -33 -48 -45 -88 -156 -551
-66 -274 -120 -508 -120 -521 0 -46 37 -61 143 -60 l95 1 7 -40 6 -41 14 39
c17 48 25 57 65 65 32 6 32 7 35 73 3 46 13 86 33 131 112 245 415 305 612
121 128 -119 157 -302 75 -465 -92 -181 -332 -256 -512 -159 -48 26 -56 27
-92 16 -49 -14 -53 -19 -57 -54 -3 -24 3 -32 49 -60 48 -29 113 -56 162 -68
56 -14 174 -11 243 7 184 47 333 197 373 374 7 30 15 55 18 56 3 0 14 2 25 4
33 6 44 -6 55 -65 18 -92 66 -177 142 -251 288 -286 768 -147 865 251 l16 65
96 -1 c105 0 132 10 132 52 0 12 -34 161 -76 331 -42 169 -77 317 -80 328 -20
102 -88 354 -104 386 -31 60 -88 117 -143 146 -59 30 -73 33 -158 40 -61 5
-68 3 -83 -18 -23 -34 -21 -76 7 -93 12 -7 46 -16 75 -19 65 -8 140 -47 169
-90 17 -25 84 -267 118 -427 8 -35 116 -476 120 -487 3 -9 -9 -13 -39 -13
l-44 0 -6 44 c-12 80 -71 183 -147 258 -67 66 -70 68 -93 53 -25 -16 -46 -55
-46 -83 0 -10 20 -37 45 -61 88 -84 125 -177 121 -302 -7 -217 -199 -387 -412
-365 -80 8 -122 23 -184 64 -70 48 -125 121 -150 201 -30 94 -27 136 16 281 4
14 3 22 -1 18 -14 -13 -63 31 -70 62 -4 17 -11 30 -16 30 -13 0 -53 -91 -68
-156 -12 -49 -13 -50 -48 -49 -35 1 -35 1 -57 75 -67 229 -259 373 -497 373
-144 -1 -268 -54 -369 -159 -63 -65 -123 -174 -133 -242 -3 -19 -8 -37 -12
-40 -9 -9 -85 -9 -85 0 0 5 12 57 26 116 14 59 27 114 29 122 2 8 8 35 15 60
7 25 13 52 15 61 2 9 31 130 65 269 68 280 84 317 158 358 23 13 66 26 95 29
64 7 85 17 97 49 10 26 -1 61 -24 76 -22 15 -122 7 -182 -16z"/>
<path d="M1976 1616 c-10 -39 -57 -87 -108 -111 l-49 -23 35 -6 c48 -9 103
-62 126 -121 13 -35 19 -43 20 -26 0 38 39 96 83 124 23 15 47 27 54 27 7 0
13 5 13 10 0 6 -8 10 -18 10 -32 0 -99 56 -118 99 -21 47 -29 51 -38 17z"/>
<path d="M1675 1450 l-40 -18 26 -10 c31 -12 59 -48 59 -75 0 -13 5 -17 16
-13 9 3 47 9 86 13 l70 6 -24 23 c-13 13 -39 25 -58 28 -50 6 -69 15 -83 41
-12 22 -12 22 -52 5z"/>
<path d="M1497 1406 c-10 -21 -32 -43 -54 -55 -33 -17 -35 -20 -15 -21 29 0
82 -54 82 -84 0 -16 4 -13 18 14 9 19 31 44 49 55 18 11 32 22 32 25 0 3 -14
12 -32 21 -17 8 -39 30 -47 48 l-16 32 -17 -35z"/>
<path d="M339 786 c-9 -17 -33 -41 -55 -53 -21 -13 -32 -23 -23 -23 24 0 69
-39 80 -69 l10 -26 16 33 c9 18 31 41 50 50 l33 17 -34 19 c-21 11 -40 32 -48
51 l-13 33 -16 -32z"/>
</g>
</svg>
