<svg xmlns="http://www.w3.org/2000/svg" viewBox="0 0 49.95 24.01"><path d="M1.14 0A1.07 1.07 0 0 0 0 1v2a1.07 1.07 0 0 0 1.14 1h47.67A1.07 1.07 0 0 0 50 3V1a1.07 1.07 0 0 0-1.14-1zm0 10A1.07 1.07 0 0 0 0 11v2a1.07 1.07 0 0 0 1.14 1h47.67A1.06 1.06 0 0 0 50 13v-2a1.08 1.08 0 0 0-1.14-1zm0 10A1.06 1.06 0 0 0 0 21v2a1.07 1.07 0 0 0 1.14 1h47.67A1.07 1.07 0 0 0 50 23v-2a1.07 1.07 0 0 0-1.14-1z"/><path d="M1.14 0A1.07 1.07 0 0 0 0 1v2a1.07 1.07 0 0 0 1.14 1h47.67A1.07 1.07 0 0 0 50 3V1a1.07 1.07 0 0 0-1.14-1zm0 10A1.07 1.07 0 0 0 0 11v2a1.07 1.07 0 0 0 1.14 1h47.67A1.06 1.06 0 0 0 50 13v-2a1.08 1.08 0 0 0-1.14-1zm0 10A1.06 1.06 0 0 0 0 21v2a1.07 1.07 0 0 0 1.14 1h47.67A1.07 1.07 0 0 0 50 23v-2a1.07 1.07 0 0 0-1.14-1z"/></svg>
